<?xml version="1.0" encoding="UTF-8"?>
<svg id="Layer_1" data-name="Layer 1" xmlns="http://www.w3.org/2000/svg" viewBox="0 0 506.15 506.15">
  <defs>
    <style>
      .cls-1 {
        fill: #86888a;
      }

      .cls-1, .cls-2, .cls-3 {
        stroke-width: 0px;
      }

      .cls-2 {
        fill: #231f20;
      }

      .cls-4 {
        stroke-width: .48px;
      }

      .cls-4, .cls-5 {
        fill: none;
        stroke: #231f20;
        stroke-miterlimit: 10;
      }

      .cls-3 {
        fill: #fff;
      }

      .cls-5 {
        stroke-width: .69px;
      }
    </style>
  </defs>
  <circle class="cls-3" cx="253.08" cy="253.08" r="253.08"/>
  <line class="cls-5" x1="213.37" y1="399.23" x2="213.37" y2="399.21"/>
  <path class="cls-1" d="M347.21,246.45c35.2,23.37,111.85,74.06,115.97,75.21l-182.23-188.53s-38.64-28.21-38.39-27.82c21.46,33.2,32.73,47.89,39.83,66.74,0,0-67.21,60.07-85.74,73.61-2.88,1.51-4.89,2.49-5.84,2.6-3.25.4-1.81,14.09,4.33,12.29,33.03-9.67,84.07-29.37,126.23,1.82-35.88,18.66-68.43,7.19-68.42,7.19l-5.88,80.65h.02s1.06-.14,1.06-.14l215.03-28.33c-4.91-1.36-80.94-51.8-115.96-75.14,0-.05,0-.1-.02-.15Z"/>
  <path class="cls-2" d="M321.54,262.94c-34.65-34.73-109.67-8.4-121.9-3.78-4.09-5.88-5.13-11.44-5.21-11.88-.02.01-.03.02-.05.03,54.13-40.34,90.79-74.57,90.74-74.52t0-.02c.86-.83-42.56-67.46-42.56-67.46l-31.41,60.52-21.44-33.34L42.98,340.37h0s0,0,0,0c0,0,0,0,0,0h0c1.36-.63,2.72-1.28,4.08-1.92-1.2.64-2.4,1.28-3.64,1.93-.02,0,206.2,9.81,206.2,9.81l.03-.43,4.71-78.99c6.96,2.02,35.75,8.71,67.17-7.85Z"/>
  <path class="cls-4" d="M335.2,400.86h0"/>
</svg>